<svg xmlns="http://www.w3.org/2000/svg" width="1760" height="470" viewBox="0 0 1760 470">
<style>
  .bg { fill: #ffffff; }
  .title { font-family: 'CMU Serif', 'Computer Modern Serif', 'Latin Modern Roman', 'Times New Roman', serif; font-size: 20px; font-weight: 700; }
  .label { font-family: 'CMU Serif', 'Computer Modern Serif', 'Latin Modern Roman', 'Times New Roman', serif; font-size: 18px; }
  .tick { font-family: 'CMU Serif', 'Computer Modern Serif', 'Latin Modern Roman', 'Times New Roman', serif; font-size: 14px; }
  .value { font-family: 'CMU Serif', 'Computer Modern Serif', 'Latin Modern Roman', 'Times New Roman', serif; font-size: 14px; }
  .axis { stroke: #000000; stroke-width: 1.2; }
  .grid { stroke: #000000; stroke-width: 0.8; opacity: 0.22; }
</style>
<rect class="bg" x="0" y="0" width="1760" height="470"/>
<text x="220.0" y="38" text-anchor="middle" class="title">Success Rate</text>
<text x="18" y="225.0" transform="rotate(-90 18,225.0)" text-anchor="middle" class="label">Rate</text>
<line x1="78" y1="374" x2="410" y2="374" class="axis"/>
<line x1="78" y1="56" x2="78" y2="374" class="axis"/>
<line x1="78" y1="374.0" x2="410" y2="374.0" class="grid"/>
<text x="68" y="378.0" text-anchor="end" class="tick">0.00</text>
<line x1="78" y1="294.5" x2="410" y2="294.5" class="grid"/>
<text x="68" y="298.5" text-anchor="end" class="tick">0.25</text>
<line x1="78" y1="215.0" x2="410" y2="215.0" class="grid"/>
<text x="68" y="219.0" text-anchor="end" class="tick">0.50</text>
<line x1="78" y1="135.5" x2="410" y2="135.5" class="grid"/>
<text x="68" y="139.5" text-anchor="end" class="tick">0.75</text>
<line x1="78" y1="56.0" x2="410" y2="56.0" class="grid"/>
<text x="68" y="60.0" text-anchor="end" class="tick">1.00</text>
<rect x="119.5" y="221.4" width="83.0" height="152.6" fill="#2d3748" stroke="#000000" stroke-width="1.1"/>
<text x="161.0" y="213.4" text-anchor="middle" class="value">0.48</text>
<text x="161.0" y="392.0" text-anchor="middle" class="tick">online baseline best</text>
<rect x="285.5" y="132.3" width="83.0" height="241.7" fill="#718096" stroke="#000000" stroke-width="1.1"/>
<text x="327.0" y="124.3" text-anchor="middle" class="value">0.76</text>
<text x="327.0" y="392.0" text-anchor="middle" class="tick">online llm seg09 best</text><text x="660.0" y="38" text-anchor="middle" class="title">Collision Rate</text>
<text x="458" y="225.0" transform="rotate(-90 458,225.0)" text-anchor="middle" class="label">Rate</text>
<line x1="518" y1="374" x2="850" y2="374" class="axis"/>
<line x1="518" y1="56" x2="518" y2="374" class="axis"/>
<line x1="518" y1="374.0" x2="850" y2="374.0" class="grid"/>
<text x="508" y="378.0" text-anchor="end" class="tick">0.00</text>
<line x1="518" y1="294.5" x2="850" y2="294.5" class="grid"/>
<text x="508" y="298.5" text-anchor="end" class="tick">0.03</text>
<line x1="518" y1="215.0" x2="850" y2="215.0" class="grid"/>
<text x="508" y="219.0" text-anchor="end" class="tick">0.05</text>
<line x1="518" y1="135.5" x2="850" y2="135.5" class="grid"/>
<text x="508" y="139.5" text-anchor="end" class="tick">0.08</text>
<line x1="518" y1="56.0" x2="850" y2="56.0" class="grid"/>
<text x="508" y="60.0" text-anchor="end" class="tick">0.10</text>
<rect x="559.5" y="342.2" width="83.0" height="31.8" fill="#2d3748" stroke="#000000" stroke-width="1.1"/>
<text x="601.0" y="334.2" text-anchor="middle" class="value">0.01</text>
<text x="601.0" y="392.0" text-anchor="middle" class="tick">online baseline best</text>
<rect x="725.5" y="262.7" width="83.0" height="111.3" fill="#718096" stroke="#000000" stroke-width="1.1"/>
<text x="767.0" y="254.7" text-anchor="middle" class="value">0.04</text>
<text x="767.0" y="392.0" text-anchor="middle" class="tick">online llm seg09 best</text><text x="1100.0" y="38" text-anchor="middle" class="title">Mean Success Reward</text>
<text x="898" y="225.0" transform="rotate(-90 898,225.0)" text-anchor="middle" class="label">Reward</text>
<line x1="958" y1="374" x2="1290" y2="374" class="axis"/>
<line x1="958" y1="56" x2="958" y2="374" class="axis"/>
<line x1="958" y1="374.0" x2="1290" y2="374.0" class="grid"/>
<text x="948" y="378.0" text-anchor="end" class="tick">2</text>
<line x1="958" y1="294.5" x2="1290" y2="294.5" class="grid"/>
<text x="948" y="298.5" text-anchor="end" class="tick">2</text>
<line x1="958" y1="215.0" x2="1290" y2="215.0" class="grid"/>
<text x="948" y="219.0" text-anchor="end" class="tick">2</text>
<line x1="958" y1="135.5" x2="1290" y2="135.5" class="grid"/>
<text x="948" y="139.5" text-anchor="end" class="tick">3</text>
<line x1="958" y1="56.0" x2="1290" y2="56.0" class="grid"/>
<text x="948" y="60.0" text-anchor="end" class="tick">3</text>
<rect x="999.5" y="253.0" width="83.0" height="121.0" fill="#2d3748" stroke="#000000" stroke-width="1.1"/>
<text x="1041.0" y="245.0" text-anchor="middle" class="value">2.07</text>
<text x="1041.0" y="392.0" text-anchor="middle" class="tick">online baseline best</text>
<rect x="1165.5" y="177.0" width="83.0" height="197.0" fill="#718096" stroke="#000000" stroke-width="1.1"/>
<text x="1207.0" y="169.0" text-anchor="middle" class="value">2.38</text>
<text x="1207.0" y="392.0" text-anchor="middle" class="tick">online llm seg09 best</text><text x="1540.0" y="38" text-anchor="middle" class="title">Mean Steps</text>
<text x="1338" y="225.0" transform="rotate(-90 1338,225.0)" text-anchor="middle" class="label">Steps</text>
<line x1="1398" y1="374" x2="1730" y2="374" class="axis"/>
<line x1="1398" y1="56" x2="1398" y2="374" class="axis"/>
<line x1="1398" y1="374.0" x2="1730" y2="374.0" class="grid"/>
<text x="1388" y="378.0" text-anchor="end" class="tick">900</text>
<line x1="1398" y1="294.5" x2="1730" y2="294.5" class="grid"/>
<text x="1388" y="298.5" text-anchor="end" class="tick">1025</text>
<line x1="1398" y1="215.0" x2="1730" y2="215.0" class="grid"/>
<text x="1388" y="219.0" text-anchor="end" class="tick">1150</text>
<line x1="1398" y1="135.5" x2="1730" y2="135.5" class="grid"/>
<text x="1388" y="139.5" text-anchor="end" class="tick">1275</text>
<line x1="1398" y1="56.0" x2="1730" y2="56.0" class="grid"/>
<text x="1388" y="60.0" text-anchor="end" class="tick">1400</text>
<rect x="1439.5" y="79.5" width="83.0" height="294.5" fill="#2d3748" stroke="#000000" stroke-width="1.1"/>
<text x="1481.0" y="71.5" text-anchor="middle" class="value">1363.0</text>
<text x="1481.0" y="392.0" text-anchor="middle" class="tick">online baseline best</text>
<rect x="1605.5" y="349.3" width="83.0" height="24.7" fill="#718096" stroke="#000000" stroke-width="1.1"/>
<text x="1647.0" y="341.3" text-anchor="middle" class="value">938.8</text>
<text x="1647.0" y="392.0" text-anchor="middle" class="tick">online llm seg09 best</text>
</svg>
